<?xml version="1.0" encoding="UTF-8" standalone="no"?>
<!DOCTYPE svg PUBLIC "-//W3C//DTD SVG 1.1//EN" "http://www.w3.org/Graphics/SVG/1.1/DTD/svg11.dtd">
<svg width="100%" height="100%" viewBox="0 0 12386 6104" version="1.1" xmlns="http://www.w3.org/2000/svg" xmlns:xlink="http://www.w3.org/1999/xlink" xml:space="preserve" xmlns:serif="http://www.serif.com/" style="fill-rule:evenodd;clip-rule:evenodd;stroke-linejoin:round;stroke-miterlimit:2;">
    <g transform="matrix(1,0,0,1,-20322.4,-37795.4)">
        <path d="M20344.2,41756.3C20344.2,41756.3 20865.6,38213.5 23334,38377.1C25802.4,38540.8 24960.1,39358 27280.1,38895.9C29600.1,38433.7 30747.7,36282.1 32271.5,39661.2C33795.3,43040.3 30980.3,43920.9 29196.4,43703C27412.5,43485.1 25606.5,42879.6 23825.7,43705C22044.8,44530.4 20094.1,42496.9 20344.2,41756.3ZM32409.1,41398C32003.3,41100.5 31018.6,40664.1 27310.7,41595.6C23700.9,42502.5 21230.9,41964.2 20640.1,41805.8L20637.1,41826.7L20628.4,41852.3C20606.7,41916.8 20630.1,41997.5 20664.3,42088.7C20746.3,42307.1 20923.1,42554.4 21158.9,42785.8C21759.6,43375.6 22753.8,43871.2 23699.5,43432.8C24640.4,42996.8 25587.2,42934.1 26535,43013.8C27435.8,43089.6 28337.1,43295.8 29232.8,43405.2C30203.6,43523.8 31520.6,43311.2 32112.8,42438.1C32301.9,42159.2 32409.7,41815.7 32409.1,41398ZM32381.6,41024C32330.7,40660.2 32207.3,40248.6 31998,39784.5C31521.2,38727.2 31118.8,38248.4 30665.1,38125.7C30218.8,38005 29761.4,38236 29221.1,38490.2C28674.5,38747.3 28060.8,39046.2 27338.7,39190.1C26071.3,39442.6 25668,39329.2 25244.1,39146.7C24875,38987.9 24488.3,38754.3 23314.1,38676.5C22448.5,38619.1 21861.1,39091.2 21461.7,39666.9C21012,40315.1 20790.4,41096.8 20697.4,41510.5C21208.9,41650.2 23644.2,42207.4 27237.6,41304.6C30605,40458.7 31834.8,40728.2 32381.6,41024Z" style="fill:white;"/>
    </g>
</svg>
